<svg width="55" height="55" viewBox="0 0 55 55" fill="none" xmlns="http://www.w3.org/2000/svg">
<path fill-rule="evenodd" clip-rule="evenodd" d="M5.85164 5.87706C-1.95055 13.7131 -1.95055 26.4351 5.85164 34.2721C13.6538 42.1082 26.3208 42.1082 34.1239 34.2721C41.9261 26.4361 41.9261 13.7141 34.1239 5.87706C26.3217 -1.95902 13.6548 -1.95902 5.85164 5.87706ZM7.86114 7.89528C14.5532 1.17217 25.4212 1.17217 32.1139 7.89528C38.808 14.6165 38.808 25.5316 32.1139 32.2534C25.4218 38.9765 14.5538 38.9765 7.86114 32.2534C1.1671 25.5322 1.1671 14.6171 7.86114 7.89528Z" fill="#3D166A"/>
<path d="M7.86114 7.89528C14.5532 1.17217 25.4212 1.17217 32.1139 7.89528C38.808 14.6165 38.808 25.5316 32.1139 32.2534C25.4218 38.9765 14.5538 38.9765 7.86114 32.2534C1.1671 25.5322 1.1671 14.6171 7.86114 7.89528Z" fill="#FFB655"/>
<path fill-rule="evenodd" clip-rule="evenodd" d="M30.0834 34.1725C30.8443 33.6022 31.6391 32.9669 32.331 32.2749C31.625 32.9815 30.8725 33.6146 30.0834 34.1725Z" fill="#FFB655"/>
<path fill-rule="evenodd" clip-rule="evenodd" d="M33.8408 30.5513L34.2651 29.9721C34.1282 30.1675 33.9868 30.3606 33.8408 30.5513ZM32.331 32.2749C31.625 32.9815 30.8725 33.6146 30.0834 34.1725C30.8443 33.6022 31.6391 32.9669 32.331 32.2749Z" fill="#3D166A"/>
<path fill-rule="evenodd" clip-rule="evenodd" d="M33.8408 30.5513L34.2651 29.9721C34.1282 30.1675 33.9868 30.3606 33.8408 30.5513Z" fill="#FFB655"/>
<path d="M33.8408 30.5513C33.3882 31.1429 32.8919 31.7116 32.3527 32.2532L33.8408 30.5513Z" fill="#FFB655"/>
<path fill-rule="evenodd" clip-rule="evenodd" d="M30.0834 34.1725C30.8725 33.6146 31.625 32.9815 32.331 32.2749L32.3527 32.2532C32.8919 31.7116 33.3882 31.1429 33.8408 30.5513C33.9868 30.3606 34.1282 30.1675 34.2651 29.9721L50.9266 45.5244C51.6898 46.2263 52.1348 47.2099 52.1597 48.2488C52.1823 49.2896 51.7809 50.292 51.0497 51.0284L51.0459 51.0322C50.3128 51.7666 49.3146 52.1697 48.2784 52.147C47.244 52.1225 46.2652 51.675 45.5658 50.9085L30.0834 34.1725Z" fill="#FFB655"/>
<path fill-rule="evenodd" clip-rule="evenodd" d="M35.8209 28.4824C36.2415 28.4234 36.664 28.5565 36.9746 28.842L52.8446 43.4188C54.1801 44.6455 54.9584 46.3673 54.9983 48.1859C55.0401 50.0045 54.3376 51.7584 53.0569 53.0446C53.0569 53.0455 53.0565 53.0464 53.0558 53.0471C53.0551 53.0479 53.0541 53.0484 53.0532 53.0484C51.7725 54.3341 50.0262 55.0402 48.2155 54.9982C46.4047 54.9581 44.6908 54.1761 43.469 52.8351L28.9563 36.8952C28.6719 36.5833 28.5394 36.1589 28.5982 35.7365C28.6569 35.3164 28.8975 34.9436 29.2575 34.7208C29.5368 34.547 29.8123 34.3642 30.0834 34.1725L45.5658 50.9085C46.2652 51.675 47.244 52.1225 48.2784 52.147C49.3146 52.1697 50.3128 51.7666 51.0459 51.0322L51.0497 51.0284C51.7809 50.292 52.1823 49.2896 52.1597 48.2488C52.1348 47.2099 51.6898 46.2263 50.9266 45.5244L34.2651 29.9721C34.4554 29.7004 34.6369 29.4245 34.8096 29.1446C35.0309 28.783 35.4022 28.5414 35.8209 28.4824Z" fill="#3D166A"/>
<path fill-rule="evenodd" clip-rule="evenodd" d="M9.54052 9.51438C3.78597 15.2939 3.78597 24.6761 9.54052 30.4554C15.2951 36.235 24.6367 36.235 30.391 30.4554C36.1456 24.6759 36.1456 15.2937 30.391 9.51438C24.6365 3.73483 15.2948 3.73483 9.54052 9.51438ZM11.55 11.5326C16.1945 6.86603 23.7372 6.86603 28.3811 11.5326C33.0275 16.1972 33.0275 23.7727 28.3811 28.4367C23.7366 33.1033 16.1939 33.1033 11.55 28.4367C6.90363 23.7721 6.90363 16.1966 11.55 11.5326Z" fill="#3D166A"/>
<path d="M11.55 11.5326C16.1945 6.86603 23.7372 6.86603 28.3811 11.5326C33.0275 16.1972 33.0275 23.7727 28.3811 28.4367C23.7366 33.1033 16.1939 33.1033 11.55 28.4367C6.90363 23.7721 6.90363 16.1966 11.55 11.5326Z" fill="#B183E6"/>
<rect width="6.0137" height="1.87981" transform="matrix(0.744419 -0.667713 0.689639 0.724153 29.3381 33.432)" fill="#FFB657"/>
</svg>
